# Blender v2.82 (sub 7) OBJ File: ''
# www.blender.org
mtllib cube.mtl
o Cube
v 1.000000 1.000000 -1.000000
v 1.000000 -1.000000 -1.000000
v 1.000000 1.000000 1.000000
v 1.000000 -1.000000 1.000000
v -1.000000 1.000000 -1.000000
v -1.000000 -1.000000 -1.000000
v -1.000000 1.000000 1.000000
v -1.000000 -1.000000 1.000000
vt 1.503150 0.933548
vt 1.504501 1.882519
vt 0.923917 1.883870
vt 0.922567 0.934898
vt 0.921216 -0.014074
vt 0.089508 0.936249
vt 0.088157 -0.012723
vt 2.662966 -0.018126
vt 2.664317 0.930846
vt 2.083734 0.932197
vt 2.082384 -0.016775
vt 1.500449 -0.964396
vt 1.501800 -0.015424
vt 0.919866 -0.963045
vn 0.0000 1.0000 0.0000
vn 0.0000 0.0000 1.0000
vn -1.0000 0.0000 0.0000
vn 0.0000 -1.0000 0.0000
vn 1.0000 0.0000 0.0000
vn 0.0000 0.0000 -1.0000
usemtl lofi
s off
f 1/1/1 5/2/1 7/3/1 3/4/1
f 4/5/2 3/4/2 7/6/2 8/7/2
f 8/8/3 7/9/3 5/10/3 6/11/3
f 6/12/4 2/13/4 4/5/4 8/14/4
f 2/13/5 1/1/5 3/4/5 4/5/5
f 6/11/6 5/10/6 1/1/6 2/13/6
